<svg xmlns="http://www.w3.org/2000/svg" viewBox="0 0 64 64">
  <defs>
    <linearGradient id="bg" x1="0%" y1="0%" x2="100%" y2="100%">
      <stop offset="0%"   stop-color="#0f4c99"/>
      <stop offset="40%"  stop-color="#1565C0"/>
      <stop offset="100%" stop-color="#1b7f3a"/>
    </linearGradient>
    <linearGradient id="gloss" x1="0%" y1="0%" x2="0%" y2="100%">
      <stop offset="0%"   stop-color="#ffffff" stop-opacity="0.22"/>
      <stop offset="52%"  stop-color="#ffffff" stop-opacity="0"/>
    </linearGradient>
  </defs>

  <path d="M 24,0 L 51,0 A 13,13 0 0 1 64,13 L 64,40 A 24,24 0 0 1 40,64 L 13,64 A 13,13 0 0 1 0,51 L 0,24 A 24,24 0 0 1 24,0 Z" fill="url(#bg)"/>
  <path d="M 21.7,2.5 L 51,2.5 A 10.4,10.4 0 0 1 61.5,12.9 L 61.5,40.7 A 21.7,21.7 0 0 1 39.8,62.5 L 12.9,62.5 A 10.4,10.4 0 0 1 2.5,52.1 L 2.5,24.3 A 21.7,21.7 0 0 1 24.3,2.5 Z" fill="url(#gloss)"/>

  <path d="M30 30 C26 25 15 21 8 27 C4 31 8 38 18 35 C24 33 28 31 30 30" fill="white" opacity="0.92"/>
  <path d="M34 30 C38 25 49 21 56 27 C60 31 56 38 46 35 C40 33 36 31 34 30" fill="white" opacity="0.92"/>
  <ellipse cx="32" cy="29" rx="3.5" ry="7" fill="white" opacity="0.97"/>
  <path d="M28.5 36 L32 44 L35.5 36" fill="white" opacity="0.72"/>
</svg>
